<svg width="178" height="33" viewBox="0 0 178 33" fill="none" xmlns="http://www.w3.org/2000/svg">
<path d="M27.7923 26.976C27.7923 27.968 27.6163 28.704 27.2643 29.184C26.9123 29.664 26.3523 30.128 25.5843 30.576C25.1363 30.832 24.5763 31.088 23.9043 31.344C23.2323 31.568 22.4963 31.76 21.6963 31.92C20.8963 32.112 20.0483 32.256 19.1523 32.352C18.2883 32.448 17.4243 32.496 16.5603 32.496C14.2563 32.496 12.0963 32.192 10.0803 31.584C8.06431 30.944 6.30431 30 4.80031 28.752C3.32831 27.472 2.16031 25.888 1.29631 24C0.432313 22.112 0.000312507 19.92 0.000312507 17.424C0.000312507 14.8 0.464313 12.512 1.39231 10.56C2.35231 8.608 3.60031 6.992 5.13631 5.712C6.70431 4.4 8.48031 3.424 10.4643 2.784C12.4803 2.144 14.5443 1.824 16.6563 1.824C19.6963 1.824 22.0963 2.32 23.8563 3.312C25.6483 4.272 26.5443 5.536 26.5443 7.104C26.5443 7.936 26.3363 8.656 25.9203 9.264C25.5043 9.872 25.0243 10.352 24.4803 10.704C23.6803 10.224 22.6723 9.76 21.4563 9.312C20.2723 8.832 18.9283 8.592 17.4243 8.592C14.7363 8.592 12.5923 9.36 10.9923 10.896C9.42431 12.432 8.64031 14.56 8.64031 17.28C8.64031 18.752 8.84831 20.032 9.26431 21.12C9.71231 22.176 10.3043 23.056 11.0403 23.76C11.7763 24.432 12.6243 24.944 13.5843 25.296C14.5443 25.616 15.5683 25.776 16.6563 25.776C17.3603 25.776 17.9843 25.712 18.5283 25.584C19.0723 25.456 19.4883 25.312 19.7763 25.152V20.64H14.6403C14.4483 20.288 14.2563 19.824 14.0643 19.248C13.9043 18.672 13.8243 18.064 13.8243 17.424C13.8243 16.272 14.0803 15.44 14.5923 14.928C15.1363 14.416 15.8243 14.16 16.6563 14.16H24.7683C25.7283 14.16 26.4643 14.432 26.9763 14.976C27.5203 15.488 27.7923 16.224 27.7923 17.184V26.976ZM40.8513 31.68C40.5313 31.776 40.0193 31.872 39.3153 31.968C38.6433 32.064 37.9393 32.112 37.2033 32.112C36.4993 32.112 35.8593 32.064 35.2833 31.968C34.7393 31.872 34.2753 31.68 33.8913 31.392C33.5073 31.104 33.2033 30.72 32.9793 30.24C32.7873 29.728 32.6913 29.072 32.6913 28.272V13.872C32.6913 13.136 32.8193 12.512 33.0753 12C33.3633 11.456 33.7633 10.976 34.2753 10.56C34.7873 10.144 35.4113 9.776 36.1473 9.456C36.9153 9.104 37.7313 8.8 38.5953 8.544C39.4593 8.288 40.3553 8.096 41.2833 7.968C42.2113 7.808 43.1393 7.728 44.0673 7.728C45.6033 7.728 46.8193 8.032 47.7153 8.64C48.6113 9.216 49.0593 10.176 49.0593 11.52C49.0593 11.968 48.9953 12.416 48.8673 12.864C48.7393 13.28 48.5793 13.664 48.3873 14.016C47.7153 14.016 47.0273 14.048 46.3233 14.112C45.6193 14.176 44.9313 14.272 44.2593 14.4C43.5873 14.528 42.9473 14.672 42.3393 14.832C41.7633 14.96 41.2673 15.12 40.8513 15.312V31.68ZM61.7066 26.544C62.2506 26.544 62.8426 26.496 63.4826 26.4C64.1546 26.272 64.6506 26.112 64.9706 25.92V22.08L61.5146 22.368C60.6186 22.432 59.8826 22.624 59.3066 22.944C58.7306 23.264 58.4426 23.744 58.4426 24.384C58.4426 25.024 58.6826 25.552 59.1626 25.968C59.6746 26.352 60.5226 26.544 61.7066 26.544ZM61.3226 7.68C63.0506 7.68 64.6186 7.856 66.0266 8.208C67.4666 8.56 68.6826 9.104 69.6746 9.84C70.6986 10.544 71.4826 11.456 72.0266 12.576C72.5706 13.664 72.8426 14.96 72.8426 16.464V27.216C72.8426 28.048 72.6026 28.736 72.1226 29.28C71.6746 29.792 71.1306 30.24 70.4906 30.624C68.4106 31.872 65.4826 32.496 61.7066 32.496C60.0106 32.496 58.4746 32.336 57.0986 32.016C55.7546 31.696 54.5866 31.216 53.5946 30.576C52.6346 29.936 51.8826 29.12 51.3386 28.128C50.8266 27.136 50.5706 25.984 50.5706 24.672C50.5706 22.464 51.2266 20.768 52.5386 19.584C53.8506 18.4 55.8826 17.664 58.6346 17.376L64.9226 16.704V16.368C64.9226 15.44 64.5066 14.784 63.6746 14.4C62.8746 13.984 61.7066 13.776 60.1706 13.776C58.9546 13.776 57.7706 13.904 56.6186 14.16C55.4666 14.416 54.4266 14.736 53.4986 15.12C53.0826 14.832 52.7306 14.4 52.4426 13.824C52.1546 13.216 52.0106 12.592 52.0106 11.952C52.0106 11.12 52.2026 10.464 52.5866 9.984C53.0026 9.472 53.6266 9.04 54.4586 8.688C55.3866 8.336 56.4746 8.08 57.7226 7.92C59.0026 7.76 60.2026 7.68 61.3226 7.68ZM77.9279 0.48C78.2479 0.383999 78.7599 0.287999 79.4639 0.192C80.1679 0.0640001 80.8879 0 81.6239 0C82.3279 0 82.9519 0.0479994 83.4959 0.143998C84.0719 0.239999 84.5519 0.431999 84.9359 0.719999C85.3199 1.008 85.6079 1.408 85.7999 1.92C85.9919 2.4 86.0879 3.04 86.0879 3.84V8.544C86.8879 8.224 87.6399 8 88.3439 7.872C89.0799 7.744 89.8799 7.68 90.7439 7.68C92.2799 7.68 93.7359 7.952 95.1119 8.496C96.4879 9.04 97.7039 9.84 98.7599 10.896C99.8159 11.92 100.648 13.2 101.256 14.736C101.864 16.272 102.168 18.048 102.168 20.064C102.168 22.144 101.848 23.968 101.208 25.536C100.6 27.072 99.7359 28.352 98.6159 29.376C97.4959 30.4 96.1199 31.184 94.4879 31.728C92.8879 32.24 91.1119 32.496 89.1599 32.496C87.0479 32.496 85.2559 32.24 83.7839 31.728C82.3119 31.248 81.0639 30.64 80.0399 29.904C78.6319 28.912 77.9279 27.632 77.9279 26.064V0.48ZM89.1599 26.064C90.6319 26.064 91.7679 25.568 92.5679 24.576C93.3999 23.552 93.8159 22.048 93.8159 20.064C93.8159 18.048 93.3999 16.544 92.5679 15.552C91.7359 14.56 90.6159 14.064 89.2079 14.064C88.5679 14.064 88.0079 14.128 87.5279 14.256C87.0799 14.384 86.5839 14.576 86.0399 14.832V25.296C86.3919 25.52 86.8079 25.712 87.2879 25.872C87.7999 26 88.4239 26.064 89.1599 26.064ZM106.24 0.48C106.56 0.383999 107.072 0.287999 107.776 0.192C108.48 0.0640001 109.2 0 109.936 0C110.64 0 111.264 0.0479994 111.808 0.143998C112.384 0.239999 112.864 0.431999 113.248 0.719999C113.632 1.008 113.92 1.408 114.112 1.92C114.304 2.4 114.4 3.04 114.4 3.84V8.544C115.2 8.224 115.952 8 116.656 7.872C117.392 7.744 118.192 7.68 119.056 7.68C120.592 7.68 122.048 7.952 123.424 8.496C124.8 9.04 126.016 9.84 127.072 10.896C128.128 11.92 128.96 13.2 129.568 14.736C130.176 16.272 130.48 18.048 130.48 20.064C130.48 22.144 130.16 23.968 129.52 25.536C128.912 27.072 128.048 28.352 126.928 29.376C125.808 30.4 124.432 31.184 122.8 31.728C121.2 32.24 119.424 32.496 117.472 32.496C115.36 32.496 113.568 32.24 112.096 31.728C110.624 31.248 109.376 30.64 108.352 29.904C106.944 28.912 106.24 27.632 106.24 26.064V0.48ZM117.472 26.064C118.944 26.064 120.08 25.568 120.88 24.576C121.712 23.552 122.128 22.048 122.128 20.064C122.128 18.048 121.712 16.544 120.88 15.552C120.048 14.56 118.928 14.064 117.52 14.064C116.88 14.064 116.32 14.128 115.84 14.256C115.392 14.384 114.896 14.576 114.352 14.832V25.296C114.704 25.52 115.12 25.712 115.6 25.872C116.112 26 116.736 26.064 117.472 26.064ZM146.793 32.496C144.905 32.496 143.145 32.24 141.513 31.728C139.913 31.184 138.505 30.384 137.289 29.328C136.105 28.272 135.161 26.944 134.457 25.344C133.785 23.744 133.449 21.872 133.449 19.728C133.449 17.616 133.785 15.808 134.457 14.304C135.161 12.768 136.073 11.52 137.193 10.56C138.313 9.568 139.593 8.848 141.033 8.4C142.473 7.92 143.945 7.68 145.449 7.68C147.145 7.68 148.681 7.936 150.057 8.448C151.465 8.96 152.665 9.664 153.657 10.56C154.681 11.456 155.465 12.528 156.009 13.776C156.585 15.024 156.873 16.384 156.873 17.856C156.873 18.944 156.569 19.776 155.961 20.352C155.353 20.928 154.505 21.296 153.417 21.456L141.561 23.232C141.913 24.288 142.633 25.088 143.721 25.632C144.809 26.144 146.057 26.4 147.465 26.4C148.777 26.4 150.009 26.24 151.161 25.92C152.345 25.568 153.305 25.168 154.041 24.72C154.553 25.04 154.985 25.488 155.337 26.064C155.689 26.64 155.865 27.248 155.865 27.888C155.865 29.328 155.193 30.4 153.849 31.104C152.825 31.648 151.673 32.016 150.393 32.208C149.113 32.4 147.913 32.496 146.793 32.496ZM145.449 13.632C144.681 13.632 144.009 13.76 143.433 14.016C142.889 14.272 142.441 14.608 142.089 15.024C141.737 15.408 141.465 15.856 141.273 16.368C141.113 16.848 141.017 17.344 140.985 17.856L149.193 16.512C149.097 15.872 148.745 15.232 148.137 14.592C147.529 13.952 146.633 13.632 145.449 13.632ZM168.961 31.68C168.641 31.776 168.129 31.872 167.425 31.968C166.753 32.064 166.049 32.112 165.313 32.112C164.609 32.112 163.969 32.064 163.393 31.968C162.849 31.872 162.385 31.68 162.001 31.392C161.617 31.104 161.313 30.72 161.089 30.24C160.897 29.728 160.801 29.072 160.801 28.272V13.872C160.801 13.136 160.929 12.512 161.185 12C161.473 11.456 161.873 10.976 162.385 10.56C162.897 10.144 163.521 9.776 164.257 9.456C165.025 9.104 165.841 8.8 166.705 8.544C167.569 8.288 168.465 8.096 169.393 7.968C170.321 7.808 171.249 7.728 172.177 7.728C173.713 7.728 174.929 8.032 175.825 8.64C176.721 9.216 177.169 10.176 177.169 11.52C177.169 11.968 177.105 12.416 176.977 12.864C176.849 13.28 176.689 13.664 176.497 14.016C175.825 14.016 175.137 14.048 174.433 14.112C173.729 14.176 173.041 14.272 172.369 14.4C171.697 14.528 171.057 14.672 170.449 14.832C169.873 14.96 169.377 15.12 168.961 15.312V31.68Z" fill="#0CA201"/>
</svg>
