<svg width="20" height="20" viewBox="0 0 20 20" fill="none" xmlns="http://www.w3.org/2000/svg">
<path d="M17.2984 7.566H2.70235C2.40702 7.56662 2.11563 7.63384 1.84986 7.76265C1.5841 7.89146 1.35081 8.07856 1.16735 8.31C0.985119 8.54116 0.857758 8.81068 0.794877 9.09824C0.731995 9.3858 0.735235 9.68388 0.804352 9.97L2.36935 16.378C2.59553 17.2038 3.08758 17.932 3.76935 18.45C4.45135 18.969 5.28635 19.25 6.14535 19.25H13.8534C14.7124 19.25 15.5474 18.969 16.2294 18.45C16.9111 17.932 17.4032 17.2038 17.6294 16.378L19.1944 9.971C19.2997 9.53905 19.2535 9.08403 19.0634 8.68209C18.8734 8.28015 18.551 7.95568 18.1504 7.763C17.8842 7.63385 17.5922 7.5665 17.2964 7.566M6.08735 11.46V15.355M10.0004 11.46V15.355M13.9134 11.46V15.355M16.8484 7.566C16.848 6.67005 16.6706 5.78299 16.3264 4.95582C15.9821 4.12864 15.4778 3.37765 14.8424 2.746C13.5556 1.46687 11.8147 0.749239 10.0004 0.750001C8.18598 0.749239 6.44512 1.46687 5.15835 2.746C4.52312 3.37773 4.01897 4.12876 3.67489 4.95593C3.3308 5.7831 3.15356 6.67012 3.15335 7.566" stroke="black" stroke-width="1.5" stroke-linecap="round" stroke-linejoin="round"/>
</svg>
